# xmcd
#
# Track frame offsets:
#	150
#	15332
#	30167
#	53070
#
# Disc length: 908 seconds
#
# Revision: 0
# Processed by: cddbd v1.4PL0 Copyright (c) Steve Scherf et al.
# Submitted via: audiograbber 1.80.04
#
DISCID=1c038a04
DTITLE=Mary-Chapin Carpenter - Passionate kisses
DYEAR=1900
DGENRE=Pop
TTITLE0=Passionate Kisses
TTITLE1=Going out tonight
TTITLE2=I am a town
TTITLE3=Down the twist and shout
EXTD=
EXTT0=
EXTT1=
EXTT2=
EXTT3=
PLAYORDER=
